{
  "accessors": [
    {
      "bufferView": 2,
      "componentType": 5126,
      "count": 1078,
      "max": [
        0.8354326486587524,
        0.3475712835788727,
        0.5640360713005066
      ],
      "min": [
        -0.8103102445602417,
        -0.33381444215774536,
        -1.172020673751831
      ],
      "type": "VEC3"
    },
    {
      "bufferView": 2,
      "byteOffset": 12936,
      "componentType": 5126,
      "count": 1078,
      "max": [
        1.0,
        1.0,
        1.0
      ],
      "min": [
        -1.0,
        -1.0,
        -1.0
      ],
      "type": "VEC3"
    },
    {
      "bufferView": 3,
      "componentType": 5126,
      "count": 1078,
      "max": [
        1.0,
        1.0,
        1.0,
        1.0
      ],
      "min": [
        0.45098039507865906,
        0.42352941632270813,
        0.3529411852359772,
        0.9960784316062927
      ],
      "type": "VEC4"
    },
    {
      "bufferView": 1,
      "componentType": 5126,
      "count": 1078,
      "max": [
        0.9827813506126404,
        0.9889107942581177
      ],
      "min": [
        0.004775390028953552,
        0.04726982116699219
      ],
      "type": "VEC2"
    },
    {
      "bufferView": 0,
      "componentType": 5125,
      "count": 2040,
      "type": "SCALAR"
    },
    {
      "bufferView": 2,
      "byteOffset": 25872,
      "componentType": 5126,
      "count": 1589,
      "max": [
        0.3214602768421173,
        0.5926973223686218,
        1.4183458089828491
      ],
      "min": [
        -0.32114845514297485,
        -0.5926973223686218,
        0.0
      ],
      "type": "VEC3"
    },
    {
      "bufferView": 2,
      "byteOffset": 44940,
      "componentType": 5126,
      "count": 1589,
      "max": [
        1.0,
        1.0,
        1.0
      ],
      "min": [
        -1.0,
        -1.0,
        -1.0
      ],
      "type": "VEC3"
    },
    {
      "bufferView": 3,
      "byteOffset": 17248,
      "componentType": 5126,
      "count": 1589,
      "max": [
        1.0,
        1.0,
        1.0,
        1.0
      ],
      "min": [
        0.45098039507865906,
        0.42352941632270813,
        0.3529411852359772,
        1.0
      ],
      "type": "VEC4"
    },
    {
      "bufferView": 1,
      "byteOffset": 8624,
      "componentType": 5126,
      "count": 1589,
      "max": [
        0.9437801241874695,
        0.9889107942581177
      ],
      "min": [
        0.004775390028953552,
        0.008333919569849968
      ],
      "type": "VEC2"
    },
    {
      "bufferView": 0,
      "byteOffset": 8160,
      "componentType": 5125,
      "count": 3597,
      "type": "SCALAR"
    }
  ],
  "asset": {
    "extras": {
      "author": "Khoa Nguyen (https://sketchfab.com/ngdkh)",
      "license": "CC-BY-4.0 (http://creativecommons.org/licenses/by/4.0/)",
      "source": "https://sketchfab.com/3d-models/vietnamese-altar-5d65b1d0919c4394808727f461773c11",
      "title": "Vietnamese altar"
    },
    "generator": "Sketchfab-16.75.0",
    "version": "2.0"
  },
  "bufferViews": [
    {
      "buffer": 0,
      "byteLength": 22548,
      "name": "floatBufferViews",
      "target": 34963
    },
    {
      "buffer": 0,
      "byteLength": 21336,
      "byteOffset": 22548,
      "byteStride": 8,
      "name": "floatBufferViews",
      "target": 34962
    },
    {
      "buffer": 0,
      "byteLength": 64008,
      "byteOffset": 43884,
      "byteStride": 12,
      "name": "floatBufferViews",
      "target": 34962
    },
    {
      "buffer": 0,
      "byteLength": 42672,
      "byteOffset": 107892,
      "byteStride": 16,
      "name": "floatBufferViews",
      "target": 34962
    }
  ],
  "buffers": [
    {
      "byteLength": 150564,
      "uri": "scene.bin"
    }
  ],
  "images": [
    {
      "uri": "textures/props_baseColor.png"
    }
  ],
  "materials": [
    {
      "doubleSided": true,
      "name": "props",
      "pbrMetallicRoughness": {
        "baseColorTexture": {
          "index": 0
        },
        "metallicFactor": 0.0,
        "roughnessFactor": 0.8211145618000169
      }
    }
  ],
  "meshes": [
    {
      "name": "alter 1_props_0",
      "primitives": [
        {
          "attributes": {
            "COLOR_0": 2,
            "NORMAL": 1,
            "POSITION": 0,
            "TEXCOORD_0": 3
          },
          "indices": 4,
          "material": 0,
          "mode": 4
        }
      ]
    },
    {
      "name": "alter 2_props_0",
      "primitives": [
        {
          "attributes": {
            "COLOR_0": 7,
            "NORMAL": 6,
            "POSITION": 5,
            "TEXCOORD_0": 8
          },
          "indices": 9,
          "material": 0,
          "mode": 4
        }
      ]
    }
  ],
  "nodes": [
    {
      "children": [
        1
      ],
      "matrix": [
        1.0,
        0.0,
        0.0,
        0.0,
        0.0,
        2.220446049250313e-16,
        -1.0,
        0.0,
        0.0,
        1.0,
        2.220446049250313e-16,
        0.0,
        0.0,
        0.0,
        0.0,
        1.0
      ],
      "name": "Sketchfab_model"
    },
    {
      "children": [
        2
      ],
      "matrix": [
        0.009999999776482582,
        0.0,
        0.0,
        0.0,
        0.0,
        0.0,
        0.009999999776482582,
        0.0,
        0.0,
        -0.009999999776482582,
        0.0,
        0.0,
        0.0,
        0.0,
        0.0,
        1.0
      ],
      "name": "89b1224dc26e481aa9f74324fe8bf1f2.fbx"
    },
    {
      "children": [
        3,
        5
      ],
      "name": "RootNode"
    },
    {
      "children": [
        4
      ],
      "matrix": [
        161.06460571289063,
        -1.2058562393803091e-20,
        7.152707053922795e-14,
        0.0,
        -7.152707053922454e-14,
        -8.38419466809163e-05,
        161.0646057128688,
        0.0,
        2.5174750342134408e-20,
        -161.0646057128688,
        -8.38419466809163e-05,
        0.0,
        -1.409602165222168,
        405.58575439453125,
        67.97119140625,
        1.0
      ],
      "name": "alter 1"
    },
    {
      "mesh": 0,
      "name": "alter 1_props_0"
    },
    {
      "children": [
        6
      ],
      "matrix": [
        3.136043654253725e-05,
        0.0,
        161.06460571288758,
        0.0,
        161.06460571288545,
        -2.624075502448512e-05,
        -3.136043656041901e-05,
        0.0,
        2.624075501554424e-05,
        161.06460571288852,
        -5.1499478509811625e-12,
        0.0,
        -0.5730777978897095,
        0.9193658828735352,
        68.97069549560547,
        1.0
      ],
      "name": "alter 2"
    },
    {
      "mesh": 1,
      "name": "alter 2_props_0"
    }
  ],
  "samplers": [
    {
      "magFilter": 9729,
      "minFilter": 9987,
      "wrapS": 10497,
      "wrapT": 10497
    }
  ],
  "scene": 0,
  "scenes": [
    {
      "name": "Sketchfab_Scene",
      "nodes": [
        0
      ]
    }
  ],
  "textures": [
    {
      "sampler": 0,
      "source": 0
    }
  ]
}
