{
  "accessors": [
    {
      "bufferView": 2,
      "componentType": 5126,
      "count": 1077,
      "max": [
        2.2438840866088867,
        0.6190232038497925,
        2.019874095916748
      ],
      "min": [
        -2.2466022968292236,
        -0.5508769750595093,
        0.0
      ],
      "type": "VEC3"
    },
    {
      "bufferView": 2,
      "byteOffset": 12924,
      "componentType": 5126,
      "count": 1077,
      "max": [
        1.0,
        1.0,
        0.9999979734420776
      ],
      "min": [
        -1.0,
        -1.0,
        -1.0
      ],
      "type": "VEC3"
    },
    {
      "bufferView": 3,
      "componentType": 5126,
      "count": 1077,
      "max": [
        1.0,
        1.0,
        1.0,
        1.0
      ],
      "min": [
        -1.0,
        -1.0,
        -1.0,
        -1.0
      ],
      "type": "VEC4"
    },
    {
      "bufferView": 1,
      "componentType": 5126,
      "count": 1077,
      "max": [
        0.9905305504798889,
        0.9972907304763794
      ],
      "min": [
        0.0024420784320682287,
        0.00244140625
      ],
      "type": "VEC2"
    },
    {
      "bufferView": 1,
      "byteOffset": 8616,
      "componentType": 5126,
      "count": 1077,
      "max": [
        0.9905305504798889,
        0.9972907304763794
      ],
      "min": [
        0.0024420784320682287,
        0.00244140625
      ],
      "type": "VEC2"
    },
    {
      "bufferView": 0,
      "componentType": 5125,
      "count": 2850,
      "type": "SCALAR"
    },
    {
      "bufferView": 2,
      "byteOffset": 25848,
      "componentType": 5126,
      "count": 1478,
      "max": [
        0.4457297921180725,
        0.9024146795272827,
        0.22230207920074463
      ],
      "min": [
        -0.45430052280426025,
        -0.018573641777038574,
        -0.16016483306884766
      ],
      "type": "VEC3"
    },
    {
      "bufferView": 2,
      "byteOffset": 43584,
      "componentType": 5126,
      "count": 1478,
      "max": [
        1.0,
        1.0,
        1.0
      ],
      "min": [
        -1.0,
        -1.0,
        -1.0
      ],
      "type": "VEC3"
    },
    {
      "bufferView": 3,
      "byteOffset": 17232,
      "componentType": 5126,
      "count": 1478,
      "max": [
        1.0,
        1.0,
        1.0,
        1.0
      ],
      "min": [
        -1.0,
        -1.0,
        -1.0,
        -1.0
      ],
      "type": "VEC4"
    },
    {
      "bufferView": 1,
      "byteOffset": 17232,
      "componentType": 5126,
      "count": 1478,
      "max": [
        0.9767556190490723,
        0.9975585341453552
      ],
      "min": [
        0.00244140625,
        0.002441857708618045
      ],
      "type": "VEC2"
    },
    {
      "bufferView": 1,
      "byteOffset": 29056,
      "componentType": 5126,
      "count": 1478,
      "max": [
        0.9767556190490723,
        0.9975585341453552
      ],
      "min": [
        0.00244140625,
        0.002441857708618045
      ],
      "type": "VEC2"
    },
    {
      "bufferView": 0,
      "byteOffset": 11400,
      "componentType": 5125,
      "count": 5835,
      "type": "SCALAR"
    },
    {
      "bufferView": 2,
      "byteOffset": 61320,
      "componentType": 5126,
      "count": 1465,
      "max": [
        0.4299428462982178,
        0.9032524824142456,
        0.2222428321838379
      ],
      "min": [
        -0.43492084741592407,
        -0.019035011529922485,
        -0.15999484062194824
      ],
      "type": "VEC3"
    },
    {
      "bufferView": 2,
      "byteOffset": 78900,
      "componentType": 5126,
      "count": 1465,
      "max": [
        1.0,
        1.0,
        1.0
      ],
      "min": [
        -1.0,
        -1.0,
        -1.0
      ],
      "type": "VEC3"
    },
    {
      "bufferView": 3,
      "byteOffset": 40880,
      "componentType": 5126,
      "count": 1465,
      "max": [
        1.0,
        1.0,
        1.0,
        1.0
      ],
      "min": [
        -1.0,
        -1.0,
        -1.0,
        -1.0
      ],
      "type": "VEC4"
    },
    {
      "bufferView": 1,
      "byteOffset": 40880,
      "componentType": 5126,
      "count": 1465,
      "max": [
        0.9781287312507629,
        0.9974930286407471
      ],
      "min": [
        0.00244140625,
        0.0024414227809756994
      ],
      "type": "VEC2"
    },
    {
      "bufferView": 1,
      "byteOffset": 52600,
      "componentType": 5126,
      "count": 1465,
      "max": [
        0.9781287312507629,
        0.9974930286407471
      ],
      "min": [
        0.00244140625,
        0.0024414227809756994
      ],
      "type": "VEC2"
    },
    {
      "bufferView": 0,
      "byteOffset": 34740,
      "componentType": 5125,
      "count": 5805,
      "type": "SCALAR"
    },
    {
      "bufferView": 2,
      "byteOffset": 96480,
      "componentType": 5126,
      "count": 1476,
      "max": [
        0.45430052280426025,
        0.9024131298065186,
        0.22230374813079834
      ],
      "min": [
        -0.4457296133041382,
        -0.01857021450996399,
        -0.16016316413879395
      ],
      "type": "VEC3"
    },
    {
      "bufferView": 2,
      "byteOffset": 114192,
      "componentType": 5126,
      "count": 1476,
      "max": [
        1.0,
        1.0,
        1.0
      ],
      "min": [
        -1.0,
        -1.0,
        -1.0
      ],
      "type": "VEC3"
    },
    {
      "bufferView": 3,
      "byteOffset": 64320,
      "componentType": 5126,
      "count": 1476,
      "max": [
        1.0,
        1.0,
        1.0,
        1.0
      ],
      "min": [
        -1.0,
        -1.0,
        -1.0,
        -1.0
      ],
      "type": "VEC4"
    },
    {
      "bufferView": 1,
      "byteOffset": 64320,
      "componentType": 5126,
      "count": 1476,
      "max": [
        0.9751073122024536,
        0.99755859375
      ],
      "min": [
        0.00244140625,
        0.0024427969474345446
      ],
      "type": "VEC2"
    },
    {
      "bufferView": 1,
      "byteOffset": 76128,
      "componentType": 5126,
      "count": 1476,
      "max": [
        0.9751073122024536,
        0.99755859375
      ],
      "min": [
        0.00244140625,
        0.0024427969474345446
      ],
      "type": "VEC2"
    },
    {
      "bufferView": 0,
      "byteOffset": 57960,
      "componentType": 5125,
      "count": 5835,
      "type": "SCALAR"
    }
  ],
  "asset": {
    "extras": {
      "author": "Console Art Cybernetic (https://sketchfab.com/cacybernetic)",
      "license": "SKETCHFAB Standard (https://sketchfab.com/licenses)",
      "source": "https://sketchfab.com/3d-models/chinese-commode-81ce733563444b2d851524ca94a30e7a",
      "title": "Chinese Commode"
    },
    "generator": "Sketchfab-17.8.0",
    "version": "2.0"
  },
  "bufferViews": [
    {
      "buffer": 0,
      "byteLength": 81300,
      "name": "floatBufferViews",
      "target": 34963
    },
    {
      "buffer": 0,
      "byteLength": 87936,
      "byteOffset": 81300,
      "byteStride": 8,
      "name": "floatBufferViews",
      "target": 34962
    },
    {
      "buffer": 0,
      "byteLength": 131904,
      "byteOffset": 169236,
      "byteStride": 12,
      "name": "floatBufferViews",
      "target": 34962
    },
    {
      "buffer": 0,
      "byteLength": 87936,
      "byteOffset": 301140,
      "byteStride": 16,
      "name": "floatBufferViews",
      "target": 34962
    }
  ],
  "buffers": [
    {
      "byteLength": 389076,
      "uri": "scene.bin"
    }
  ],
  "images": [
    {
      "uri": "textures/chinese_commode_baseColor.jpeg"
    },
    {
      "uri": "textures/chinese_commode_metallicRoughness.png"
    },
    {
      "uri": "textures/chinese_commode_normal.png"
    }
  ],
  "materials": [
    {
      "doubleSided": true,
      "name": "chinese_commode",
      "normalTexture": {
        "index": 2
      },
      "occlusionTexture": {
        "index": 1
      },
      "pbrMetallicRoughness": {
        "baseColorTexture": {
          "index": 0
        },
        "metallicRoughnessTexture": {
          "index": 1
        }
      }
    }
  ],
  "meshes": [
    {
      "name": "body_chinese_commode_0",
      "primitives": [
        {
          "attributes": {
            "NORMAL": 1,
            "POSITION": 0,
            "TANGENT": 2,
            "TEXCOORD_0": 3,
            "TEXCOORD_1": 4
          },
          "indices": 5,
          "material": 0,
          "mode": 4
        }
      ]
    },
    {
      "name": "drawer_1_chinese_commode_0",
      "primitives": [
        {
          "attributes": {
            "NORMAL": 7,
            "POSITION": 6,
            "TANGENT": 8,
            "TEXCOORD_0": 9,
            "TEXCOORD_1": 10
          },
          "indices": 11,
          "material": 0,
          "mode": 4
        }
      ]
    },
    {
      "name": "drawer_2_chinese_commode_0",
      "primitives": [
        {
          "attributes": {
            "NORMAL": 13,
            "POSITION": 12,
            "TANGENT": 14,
            "TEXCOORD_0": 15,
            "TEXCOORD_1": 16
          },
          "indices": 17,
          "material": 0,
          "mode": 4
        }
      ]
    },
    {
      "name": "drawer_3_chinese_commode_0",
      "primitives": [
        {
          "attributes": {
            "NORMAL": 19,
            "POSITION": 18,
            "TANGENT": 20,
            "TEXCOORD_0": 21,
            "TEXCOORD_1": 22
          },
          "indices": 23,
          "material": 0,
          "mode": 4
        }
      ]
    }
  ],
  "nodes": [
    {
      "children": [
        1
      ],
      "matrix": [
        1.0,
        0.0,
        0.0,
        0.0,
        0.0,
        2.220446049250313e-16,
        -1.0,
        0.0,
        0.0,
        1.0,
        2.220446049250313e-16,
        0.0,
        0.0,
        0.0,
        0.0,
        1.0
      ],
      "name": "Sketchfab_model"
    },
    {
      "children": [
        2
      ],
      "matrix": [
        0.009999999776482582,
        0.0,
        0.0,
        0.0,
        0.0,
        0.0,
        0.009999999776482582,
        0.0,
        0.0,
        -0.009999999776482582,
        0.0,
        0.0,
        0.0,
        0.0,
        0.0,
        1.0
      ],
      "name": "d9207e3dd1e543f3814b9d182e6aa6b8.fbx"
    },
    {
      "children": [
        3,
        5,
        7,
        9
      ],
      "name": "RootNode"
    },
    {
      "children": [
        4
      ],
      "matrix": [
        100.0,
        0.0,
        0.0,
        0.0,
        0.0,
        -4.371139006309477e-06,
        -99.9999999999999,
        0.0,
        0.0,
        99.9999999999999,
        -4.371139006309477e-06,
        0.0,
        0.0,
        0.0,
        0.0,
        1.0
      ],
      "name": "body"
    },
    {
      "mesh": 0,
      "name": "body_chinese_commode_0"
    },
    {
      "children": [
        6
      ],
      "matrix": [
        100.0,
        0.0,
        0.0,
        0.0,
        -0.0,
        -4.371139006309477e-06,
        -99.9999999999999,
        0.0,
        0.0,
        99.9999999999999,
        -4.371139006309477e-06,
        0.0,
        -100.4632568359375,
        164.76644897460938,
        49.12779235839844,
        1.0
      ],
      "name": "drawer_1"
    },
    {
      "mesh": 1,
      "name": "drawer_1_chinese_commode_0"
    },
    {
      "children": [
        8
      ],
      "matrix": [
        100.0,
        0.0,
        0.0,
        0.0,
        0.0,
        -4.371139006309477e-06,
        -99.9999999999999,
        0.0,
        0.0,
        99.9999999999999,
        -4.371139006309477e-06,
        0.0,
        0.24868273735046387,
        164.77239990234375,
        49.0411376953125,
        1.0
      ],
      "name": "drawer_2"
    },
    {
      "mesh": 2,
      "name": "drawer_2_chinese_commode_0"
    },
    {
      "children": [
        10
      ],
      "matrix": [
        100.0,
        0.0,
        0.0,
        0.0,
        0.0,
        -4.371139006309477e-06,
        -99.9999999999999,
        0.0,
        0.0,
        99.9999999999999,
        -4.371139006309477e-06,
        0.0,
        100.0187759399414,
        164.7662811279297,
        49.12762451171875,
        1.0
      ],
      "name": "drawer_3"
    },
    {
      "mesh": 3,
      "name": "drawer_3_chinese_commode_0"
    }
  ],
  "samplers": [
    {
      "magFilter": 9729,
      "minFilter": 9987,
      "wrapS": 10497,
      "wrapT": 10497
    }
  ],
  "scene": 0,
  "scenes": [
    {
      "name": "Sketchfab_Scene",
      "nodes": [
        0
      ]
    }
  ],
  "textures": [
    {
      "sampler": 0,
      "source": 0
    },
    {
      "sampler": 0,
      "source": 1
    },
    {
      "sampler": 0,
      "source": 2
    }
  ]
}
