{
  "accessors": [
    {
      "bufferView": 2,
      "componentType": 5126,
      "count": 465,
      "max": [
        0.6201753616333008,
        0.48315107822418213,
        0.014923015609383583
      ],
      "min": [
        -0.5769451856613159,
        -0.999332070350647,
        -1.9578697681427002
      ],
      "type": "VEC3"
    },
    {
      "bufferView": 2,
      "byteOffset": 5580,
      "componentType": 5126,
      "count": 465,
      "max": [
        0.9999555349349976,
        0.996303915977478,
        0.9918469190597534
      ],
      "min": [
        -0.9997434616088867,
        -0.9890279173851013,
        -0.9955512881278992
      ],
      "type": "VEC3"
    },
    {
      "bufferView": 3,
      "componentType": 5126,
      "count": 465,
      "max": [
        0.9990054965019226,
        0.9940861463546753,
        0.5466949939727783,
        1.0
      ],
      "min": [
        -0.9997117519378662,
        -0.9368566274642944,
        -0.7918744087219238,
        -1.0
      ],
      "type": "VEC4"
    },
    {
      "bufferView": 1,
      "componentType": 5126,
      "count": 465,
      "max": [
        0.7811163663864136,
        0.9520667791366577
      ],
      "min": [
        0.0210646390914917,
        0.03947147727012634
      ],
      "type": "VEC2"
    },
    {
      "bufferView": 0,
      "componentType": 5125,
      "count": 1536,
      "type": "SCALAR"
    },
    {
      "bufferView": 2,
      "byteOffset": 11160,
      "componentType": 5126,
      "count": 13404,
      "max": [
        7.042494297027588,
        23.116926193237305,
        4.566180229187012
      ],
      "min": [
        -7.042494297027588,
        -0.013134002685546875,
        -1.07041597366333
      ],
      "type": "VEC3"
    },
    {
      "bufferView": 2,
      "byteOffset": 172008,
      "componentType": 5126,
      "count": 13404,
      "max": [
        0.9999619126319885,
        0.9997389316558838,
        0.9997031688690186
      ],
      "min": [
        -0.9998838305473328,
        -0.9998595118522644,
        -0.999466598033905
      ],
      "type": "VEC3"
    },
    {
      "bufferView": 3,
      "byteOffset": 7440,
      "componentType": 5126,
      "count": 13404,
      "max": [
        1.0,
        0.9999420046806335,
        0.9990189671516418,
        1.0
      ],
      "min": [
        -0.9999771118164063,
        -0.9998513460159302,
        -0.9999251961708069,
        -1.0
      ],
      "type": "VEC4"
    },
    {
      "bufferView": 1,
      "byteOffset": 3720,
      "componentType": 5126,
      "count": 13404,
      "max": [
        0.9880737662315369,
        0.9919630289077759
      ],
      "min": [
        0.009587018750607967,
        0.0033597080036997795
      ],
      "type": "VEC2"
    },
    {
      "bufferView": 0,
      "byteOffset": 6144,
      "componentType": 5125,
      "count": 71160,
      "type": "SCALAR"
    },
    {
      "bufferView": 2,
      "byteOffset": 332856,
      "componentType": 5126,
      "count": 1076,
      "max": [
        0.5651169419288635,
        21.947620391845703,
        1.6700009107589722
      ],
      "min": [
        -0.5651170015335083,
        21.569076538085938,
        1.3833763599395752
      ],
      "type": "VEC3"
    },
    {
      "bufferView": 2,
      "byteOffset": 345768,
      "componentType": 5126,
      "count": 1076,
      "max": [
        0.9996949434280396,
        0.9996792078018188,
        0.9996967911720276
      ],
      "min": [
        -0.9997776746749878,
        -0.9997063875198364,
        -0.3098636567592621
      ],
      "type": "VEC3"
    },
    {
      "bufferView": 1,
      "byteOffset": 110952,
      "componentType": 5126,
      "count": 1076,
      "max": [
        0.991100013256073,
        0.9763000011444092
      ],
      "min": [
        0.03620000183582306,
        0.010999999940395355
      ],
      "type": "VEC2"
    },
    {
      "bufferView": 0,
      "byteOffset": 290784,
      "componentType": 5125,
      "count": 6120,
      "type": "SCALAR"
    },
    {
      "bufferView": 2,
      "byteOffset": 358680,
      "componentType": 5126,
      "count": 1117,
      "max": [
        0.4759488105773926,
        0.2985958456993103,
        1.982314109802246
      ],
      "min": [
        -0.4759488105773926,
        -0.22979861497879028,
        -0.061084404587745667
      ],
      "type": "VEC3"
    },
    {
      "bufferView": 2,
      "byteOffset": 372084,
      "componentType": 5126,
      "count": 1117,
      "max": [
        0.9997358322143555,
        0.9997204542160034,
        0.9997690916061401
      ],
      "min": [
        -0.9997358322143555,
        -0.9999823570251465,
        -0.9991433620452881
      ],
      "type": "VEC3"
    },
    {
      "bufferView": 3,
      "byteOffset": 221904,
      "componentType": 5126,
      "count": 1117,
      "max": [
        0.9995638728141785,
        0.9998831152915955,
        0.9922015070915222,
        1.0
      ],
      "min": [
        -0.9998809099197388,
        -0.9995719194412231,
        -0.9827120304107666,
        -1.0
      ],
      "type": "VEC4"
    },
    {
      "bufferView": 1,
      "byteOffset": 119560,
      "componentType": 5126,
      "count": 1117,
      "max": [
        0.9768012762069702,
        0.9936444759368896
      ],
      "min": [
        0.00381314754486084,
        0.006715531926602125
      ],
      "type": "VEC2"
    },
    {
      "bufferView": 0,
      "byteOffset": 315264,
      "componentType": 5125,
      "count": 5736,
      "type": "SCALAR"
    }
  ],
  "asset": {
    "extras": {
      "author": "Nvikelo.Nyathi (https://sketchfab.com/Nvikelo.Nyathi)",
      "license": "CC-BY-4.0 (http://creativecommons.org/licenses/by/4.0/)",
      "source": "https://sketchfab.com/3d-models/lady-of-the-asylum-03c5802f43bb4fa7b7aef87ae290b9e6",
      "title": "Lady of the Asylum"
    },
    "generator": "Sketchfab-12.67.0",
    "version": "2.0"
  },
  "bufferViews": [
    {
      "buffer": 0,
      "byteLength": 338208,
      "name": "floatBufferViews",
      "target": 34963
    },
    {
      "buffer": 0,
      "byteLength": 128496,
      "byteOffset": 338208,
      "byteStride": 8,
      "name": "floatBufferViews",
      "target": 34962
    },
    {
      "buffer": 0,
      "byteLength": 385488,
      "byteOffset": 466704,
      "byteStride": 12,
      "name": "floatBufferViews",
      "target": 34962
    },
    {
      "buffer": 0,
      "byteLength": 239776,
      "byteOffset": 852192,
      "byteStride": 16,
      "name": "floatBufferViews",
      "target": 34962
    }
  ],
  "buffers": [
    {
      "byteLength": 1091968,
      "uri": "scene.bin"
    }
  ],
  "images": [
    {
      "uri": "textures/Hair_baseColor.png"
    },
    {
      "uri": "textures/Hair_metallicRoughness.png"
    },
    {
      "uri": "textures/Hair_normal.png"
    },
    {
      "uri": "textures/Body_baseColor.png"
    },
    {
      "uri": "textures/Body_metallicRoughness.png"
    },
    {
      "uri": "textures/Body_normal.png"
    },
    {
      "uri": "textures/Eyes_baseColor.png"
    },
    {
      "uri": "textures/Eyes_metallicRoughness.png"
    },
    {
      "uri": "textures/Eyes_emissive.png"
    },
    {
      "uri": "textures/Dress_baseColor.png"
    },
    {
      "uri": "textures/Dress_metallicRoughness.png"
    },
    {
      "uri": "textures/Dress_normal.png"
    }
  ],
  "materials": [
    {
      "alphaMode": "BLEND",
      "doubleSided": true,
      "name": "Hair",
      "normalTexture": {
        "index": 2
      },
      "pbrMetallicRoughness": {
        "baseColorTexture": {
          "index": 0
        },
        "metallicFactor": 0.02,
        "metallicRoughnessTexture": {
          "index": 1
        }
      }
    },
    {
      "name": "Body",
      "normalTexture": {
        "index": 5
      },
      "pbrMetallicRoughness": {
        "baseColorTexture": {
          "index": 3
        },
        "metallicRoughnessTexture": {
          "index": 4
        }
      }
    },
    {
      "alphaCutoff": 0.6925757668,
      "alphaMode": "MASK",
      "doubleSided": true,
      "emissiveFactor": [
        1.0,
        1.0,
        1.0
      ],
      "emissiveTexture": {
        "index": 8
      },
      "name": "Eyes",
      "pbrMetallicRoughness": {
        "baseColorTexture": {
          "index": 6
        },
        "metallicRoughnessTexture": {
          "index": 7
        }
      }
    },
    {
      "doubleSided": true,
      "name": "Dress",
      "normalTexture": {
        "index": 11
      },
      "pbrMetallicRoughness": {
        "baseColorTexture": {
          "index": 9
        },
        "metallicRoughnessTexture": {
          "index": 10
        }
      }
    }
  ],
  "meshes": [
    {
      "name": "Plane.028_Hair_0",
      "primitives": [
        {
          "attributes": {
            "NORMAL": 1,
            "POSITION": 0,
            "TANGENT": 2,
            "TEXCOORD_0": 3
          },
          "indices": 4,
          "material": 0,
          "mode": 4
        }
      ]
    },
    {
      "name": "ScaryGirlMesh_Body_0",
      "primitives": [
        {
          "attributes": {
            "NORMAL": 6,
            "POSITION": 5,
            "TANGENT": 7,
            "TEXCOORD_0": 8
          },
          "indices": 9,
          "material": 1,
          "mode": 4
        }
      ]
    },
    {
      "name": "Eyes_Eyes_0",
      "primitives": [
        {
          "attributes": {
            "NORMAL": 11,
            "POSITION": 10,
            "TEXCOORD_0": 12
          },
          "indices": 13,
          "material": 2,
          "mode": 4
        }
      ]
    },
    {
      "name": "Dress_Dress_0",
      "primitives": [
        {
          "attributes": {
            "NORMAL": 15,
            "POSITION": 14,
            "TANGENT": 16,
            "TEXCOORD_0": 17
          },
          "indices": 18,
          "material": 3,
          "mode": 4
        }
      ]
    }
  ],
  "nodes": [
    {
      "children": [
        1
      ],
      "matrix": [
        0.008333333767950535,
        0.0,
        0.0,
        0.0,
        0.0,
        1.850371804212999e-18,
        -0.008333333767950535,
        0.0,
        0.0,
        0.008333333767950535,
        1.850371804212999e-18,
        0.0,
        0.0,
        0.0,
        0.0,
        1.0
      ],
      "name": "Sketchfab_model"
    },
    {
      "children": [
        2
      ],
      "matrix": [
        1.0,
        0.0,
        0.0,
        0.0,
        0.0,
        0.0,
        1.0,
        0.0,
        0.0,
        -1.0,
        0.0,
        0.0,
        0.0,
        0.0,
        0.0,
        1.0
      ],
      "name": "b62fdc8d50a446688a42f0db0921be40.fbx"
    },
    {
      "children": [
        3,
        5,
        7,
        9
      ],
      "name": "RootNode"
    },
    {
      "children": [
        4
      ],
      "matrix": [
        -32.5256233215332,
        -0.0,
        -0.0,
        -0.0,
        -0.0,
        11.396858156970069,
        -30.463544581242857,
        -0.0,
        -0.0,
        30.463544581242857,
        11.396858156970069,
        -0.0,
        1.5934951305389404,
        229.74131774902344,
        12.377148628234863,
        1.0
      ],
      "name": "Plane.028"
    },
    {
      "mesh": 0,
      "name": "Plane.028_Hair_0"
    },
    {
      "children": [
        6
      ],
      "matrix": [
        10.0,
        0.0,
        0.0,
        0.0,
        0.0,
        9.999999999999867,
        1.6292068494294586e-06,
        0.0,
        0.0,
        -1.6292068494294586e-06,
        9.999999999999867,
        0.0,
        0.0,
        0.0,
        0.0,
        1.0
      ],
      "name": "ScaryGirlMesh"
    },
    {
      "mesh": 1,
      "name": "ScaryGirlMesh_Body_0"
    },
    {
      "children": [
        8
      ],
      "matrix": [
        10.0,
        0.0,
        0.0,
        0.0,
        0.0,
        9.999999999999867,
        1.6292068494294586e-06,
        0.0,
        0.0,
        -1.6292068494294586e-06,
        9.999999999999867,
        0.0,
        0.0,
        0.0,
        0.0,
        1.0
      ],
      "name": "Eyes"
    },
    {
      "mesh": 2,
      "name": "Eyes_Eyes_0"
    },
    {
      "children": [
        10
      ],
      "matrix": [
        100.0,
        0.0,
        0.0,
        0.0,
        0.0,
        -1.629206793918314e-05,
        -99.99999999999868,
        0.0,
        0.0,
        99.99999999999868,
        -1.629206793918314e-05,
        0.0,
        0.0,
        0.0,
        0.0,
        1.0
      ],
      "name": "Dress"
    },
    {
      "mesh": 3,
      "name": "Dress_Dress_0"
    }
  ],
  "samplers": [
    {
      "magFilter": 9729,
      "minFilter": 9987,
      "wrapS": 10497,
      "wrapT": 10497
    }
  ],
  "scene": 0,
  "scenes": [
    {
      "name": "Sketchfab_Scene",
      "nodes": [
        0
      ]
    }
  ],
  "textures": [
    {
      "sampler": 0,
      "source": 0
    },
    {
      "sampler": 0,
      "source": 1
    },
    {
      "sampler": 0,
      "source": 2
    },
    {
      "sampler": 0,
      "source": 3
    },
    {
      "sampler": 0,
      "source": 4
    },
    {
      "sampler": 0,
      "source": 5
    },
    {
      "sampler": 0,
      "source": 6
    },
    {
      "sampler": 0,
      "source": 7
    },
    {
      "sampler": 0,
      "source": 8
    },
    {
      "sampler": 0,
      "source": 9
    },
    {
      "sampler": 0,
      "source": 10
    },
    {
      "sampler": 0,
      "source": 11
    }
  ]
}
