{
  "accessors": [
    {
      "bufferView": 2,
      "componentType": 5126,
      "count": 468,
      "max": [
        1.0,
        1.3234835863113403,
        1.3431072235107422
      ],
      "min": [
        -1.0,
        -0.15370342135429382,
        -1.0
      ],
      "type": "VEC3"
    },
    {
      "bufferView": 2,
      "byteOffset": 5616,
      "componentType": 5126,
      "count": 468,
      "max": [
        1.0,
        1.0,
        1.0
      ],
      "min": [
        -1.0,
        -1.0,
        -1.0
      ],
      "type": "VEC3"
    },
    {
      "bufferView": 1,
      "componentType": 5126,
      "count": 468,
      "max": [
        0.7609214186668396,
        0.7264704704284668
      ],
      "min": [
        0.711548924446106,
        0.2686079740524292
      ],
      "type": "VEC2"
    },
    {
      "bufferView": 0,
      "componentType": 5125,
      "count": 702,
      "type": "SCALAR"
    },
    {
      "bufferView": 2,
      "byteOffset": 11232,
      "componentType": 5126,
      "count": 656,
      "max": [
        0.7228890061378479,
        0.22229260206222534,
        0.7228890657424927
      ],
      "min": [
        -0.7228891253471375,
        -5.960464477539063e-08,
        -0.7228890061378479
      ],
      "type": "VEC3"
    },
    {
      "bufferView": 2,
      "byteOffset": 19104,
      "componentType": 5126,
      "count": 656,
      "max": [
        0.9914465546607971,
        1.0,
        0.9914444088935852
      ],
      "min": [
        -0.9914446473121643,
        -1.0,
        -0.9914464354515076
      ],
      "type": "VEC3"
    },
    {
      "bufferView": 1,
      "byteOffset": 3744,
      "componentType": 5126,
      "count": 656,
      "max": [
        0.7806077003479004,
        0.7215489149093628
      ],
      "min": [
        0.7706077098846436,
        0.711548924446106
      ],
      "type": "VEC2"
    },
    {
      "bufferView": 0,
      "byteOffset": 2808,
      "componentType": 5125,
      "count": 984,
      "type": "SCALAR"
    },
    {
      "bufferView": 2,
      "byteOffset": 26976,
      "componentType": 5126,
      "count": 480,
      "max": [
        0.7262904644012451,
        0.005243539810180664,
        0.7262904644012451
      ],
      "min": [
        -0.7262905836105347,
        -0.007867813110351563,
        -0.7262905240058899
      ],
      "type": "VEC3"
    },
    {
      "bufferView": 2,
      "byteOffset": 32736,
      "componentType": 5126,
      "count": 480,
      "max": [
        0.9914449453353882,
        1.0,
        0.9914464354515076
      ],
      "min": [
        -0.9914466738700867,
        -1.0,
        -0.991445004940033
      ],
      "type": "VEC3"
    },
    {
      "bufferView": 1,
      "byteOffset": 8992,
      "componentType": 5126,
      "count": 480,
      "max": [
        0.7215489149093628,
        0.9085683822631836
      ],
      "min": [
        0.2193922996520996,
        0.5245293378829956
      ],
      "type": "VEC2"
    },
    {
      "bufferView": 0,
      "byteOffset": 6744,
      "componentType": 5125,
      "count": 720,
      "type": "SCALAR"
    },
    {
      "bufferView": 2,
      "byteOffset": 38496,
      "componentType": 5126,
      "count": 400,
      "max": [
        0.01978302001953125,
        0.03932272642850876,
        0.05724950507283211
      ],
      "min": [
        -0.8433151841163635,
        -0.5876917243003845,
        -0.05447046831250191
      ],
      "type": "VEC3"
    },
    {
      "bufferView": 2,
      "byteOffset": 43296,
      "componentType": 5126,
      "count": 400,
      "max": [
        0.9741130471229553,
        0.9914572238922119,
        0.9641456604003906
      ],
      "min": [
        -0.9626263380050659,
        -0.993114709854126,
        -0.9595947265625
      ],
      "type": "VEC3"
    },
    {
      "bufferView": 1,
      "byteOffset": 12832,
      "componentType": 5126,
      "count": 400,
      "max": [
        0.7412351369857788,
        0.9159507751464844
      ],
      "min": [
        0.6918626427650452,
        0.709088146686554
      ],
      "type": "VEC2"
    },
    {
      "bufferView": 0,
      "byteOffset": 9624,
      "componentType": 5125,
      "count": 600,
      "type": "SCALAR"
    },
    {
      "bufferView": 2,
      "byteOffset": 48096,
      "componentType": 5126,
      "count": 508,
      "max": [
        0.07584276050329208,
        -0.032416850328445435,
        0.07584279030561447
      ],
      "min": [
        -0.29949265718460083,
        -0.3777332901954651,
        -1.1542346477508545
      ],
      "type": "VEC3"
    },
    {
      "bufferView": 2,
      "byteOffset": 54192,
      "componentType": 5126,
      "count": 508,
      "max": [
        1.0,
        1.0,
        1.0
      ],
      "min": [
        -1.0,
        -1.0,
        -1.0
      ],
      "type": "VEC3"
    },
    {
      "bufferView": 1,
      "byteOffset": 16032,
      "componentType": 5126,
      "count": 508,
      "max": [
        0.24907857179641724,
        0.3573530316352844
      ],
      "min": [
        0.2390785813331604,
        0.3473530411720276
      ],
      "type": "VEC2"
    },
    {
      "bufferView": 0,
      "byteOffset": 12024,
      "componentType": 5125,
      "count": 756,
      "type": "SCALAR"
    },
    {
      "bufferView": 2,
      "byteOffset": 60288,
      "componentType": 5126,
      "count": 704,
      "max": [
        1.1038315296173096,
        2.296036958694458,
        0.08250069618225098
      ],
      "min": [
        -1.1038315296173096,
        -0.0352625846862793,
        -1.484451413154602
      ],
      "type": "VEC3"
    },
    {
      "bufferView": 2,
      "byteOffset": 68736,
      "componentType": 5126,
      "count": 704,
      "max": [
        1.0,
        0.9996558427810669,
        1.0
      ],
      "min": [
        -1.0,
        -1.0,
        -1.0
      ],
      "type": "VEC3"
    },
    {
      "bufferView": 1,
      "byteOffset": 20096,
      "componentType": 5126,
      "count": 704,
      "max": [
        0.22939230501651764,
        0.3351275324821472
      ],
      "min": [
        0.21939226984977722,
        0.3301275074481964
      ],
      "type": "VEC2"
    },
    {
      "bufferView": 0,
      "byteOffset": 15048,
      "componentType": 5125,
      "count": 1056,
      "type": "SCALAR"
    }
  ],
  "asset": {
    "extras": {
      "author": "linus1178 (https://sketchfab.com/linus1178)",
      "license": "CC-BY-4.0 (http://creativecommons.org/licenses/by/4.0/)",
      "source": "https://sketchfab.com/3d-models/phonograph-16969cfef8de45eaaa73d2560b100be9",
      "title": "phonograph"
    },
    "generator": "Sketchfab-12.68.0",
    "version": "2.0"
  },
  "bufferViews": [
    {
      "buffer": 0,
      "byteLength": 19272,
      "name": "floatBufferViews",
      "target": 34963
    },
    {
      "buffer": 0,
      "byteLength": 25728,
      "byteOffset": 19272,
      "byteStride": 8,
      "name": "floatBufferViews",
      "target": 34962
    },
    {
      "buffer": 0,
      "byteLength": 77184,
      "byteOffset": 45000,
      "byteStride": 12,
      "name": "floatBufferViews",
      "target": 34962
    }
  ],
  "buffers": [
    {
      "byteLength": 122184,
      "uri": "scene.bin"
    }
  ],
  "images": [
    {
      "uri": "textures/Material_baseColor.png"
    }
  ],
  "materials": [
    {
      "doubleSided": true,
      "name": "Material",
      "pbrMetallicRoughness": {
        "baseColorTexture": {
          "index": 0
        },
        "metallicFactor": 0.0,
        "roughnessFactor": 0.4
      }
    }
  ],
  "meshes": [
    {
      "name": "Object_0",
      "primitives": [
        {
          "attributes": {
            "NORMAL": 1,
            "POSITION": 0,
            "TEXCOORD_0": 2
          },
          "indices": 3,
          "material": 0,
          "mode": 4
        }
      ]
    },
    {
      "name": "Object_1",
      "primitives": [
        {
          "attributes": {
            "NORMAL": 5,
            "POSITION": 4,
            "TEXCOORD_0": 6
          },
          "indices": 7,
          "material": 0,
          "mode": 4
        }
      ]
    },
    {
      "name": "Object_2",
      "primitives": [
        {
          "attributes": {
            "NORMAL": 9,
            "POSITION": 8,
            "TEXCOORD_0": 10
          },
          "indices": 11,
          "material": 0,
          "mode": 4
        }
      ]
    },
    {
      "name": "Object_3",
      "primitives": [
        {
          "attributes": {
            "NORMAL": 13,
            "POSITION": 12,
            "TEXCOORD_0": 14
          },
          "indices": 15,
          "material": 0,
          "mode": 4
        }
      ]
    },
    {
      "name": "Object_4",
      "primitives": [
        {
          "attributes": {
            "NORMAL": 17,
            "POSITION": 16,
            "TEXCOORD_0": 18
          },
          "indices": 19,
          "material": 0,
          "mode": 4
        }
      ]
    },
    {
      "name": "Object_5",
      "primitives": [
        {
          "attributes": {
            "NORMAL": 21,
            "POSITION": 20,
            "TEXCOORD_0": 22
          },
          "indices": 23,
          "material": 0,
          "mode": 4
        }
      ]
    }
  ],
  "nodes": [
    {
      "children": [
        1
      ],
      "matrix": [
        1.0,
        0.0,
        0.0,
        0.0,
        0.0,
        2.220446049250313e-16,
        -1.0,
        0.0,
        0.0,
        1.0,
        2.220446049250313e-16,
        0.0,
        0.0,
        0.0,
        0.0,
        1.0
      ],
      "name": "Sketchfab_model"
    },
    {
      "children": [
        2
      ],
      "name": "root"
    },
    {
      "children": [
        3,
        5,
        7,
        9,
        11,
        13
      ],
      "matrix": [
        1.0,
        0.0,
        0.0,
        0.0,
        0.0,
        2.220446049250313e-16,
        1.0,
        0.0,
        0.0,
        -1.0,
        2.220446049250313e-16,
        0.0,
        0.0,
        0.0,
        0.0,
        1.0
      ],
      "name": "GLTF_SceneRootNode"
    },
    {
      "children": [
        4
      ],
      "matrix": [
        1.0,
        0.0,
        0.0,
        0.0,
        0.0,
        1.0,
        0.0,
        0.0,
        0.0,
        0.0,
        1.0,
        0.0,
        0.0,
        0.15749061107635498,
        0.0,
        1.0
      ],
      "name": "base_0"
    },
    {
      "mesh": 0,
      "name": "Object_4"
    },
    {
      "children": [
        6
      ],
      "matrix": [
        1.0,
        0.0,
        0.0,
        0.0,
        0.0,
        1.0,
        0.0,
        0.0,
        0.0,
        0.0,
        1.0,
        0.0,
        0.0,
        0.8666038513183594,
        0.0,
        1.0
      ],
      "name": "turntable_1"
    },
    {
      "mesh": 1,
      "name": "Object_6"
    },
    {
      "children": [
        8
      ],
      "matrix": [
        1.0198595523834229,
        0.0,
        0.0,
        0.0,
        0.0,
        1.0,
        0.0,
        0.0,
        0.0,
        0.0,
        1.0198595523834229,
        0.0,
        0.0,
        1.0428550243377686,
        0.0,
        1.0
      ],
      "name": "record_2"
    },
    {
      "mesh": 2,
      "name": "Object_8"
    },
    {
      "children": [
        10
      ],
      "matrix": [
        1.0,
        0.0,
        0.0,
        0.0,
        0.0,
        1.0,
        0.0,
        0.0,
        0.0,
        0.0,
        1.0,
        0.0,
        -0.811537504196167,
        0.7329411506652832,
        0.0,
        1.0
      ],
      "name": "crank_3"
    },
    {
      "mesh": 3,
      "name": "Object_10"
    },
    {
      "children": [
        12
      ],
      "matrix": [
        0.9940754773750456,
        0.0,
        -0.10869197431998001,
        0.0,
        0.0,
        1.0,
        0.0,
        0.0,
        0.10869197431998001,
        0.0,
        0.9940754773750456,
        0.0,
        0.0,
        1.4272425174713135,
        1.0893058776855469,
        1.0
      ],
      "name": "needle_4"
    },
    {
      "mesh": 4,
      "name": "Object_12"
    },
    {
      "children": [
        14
      ],
      "matrix": [
        1.0,
        0.0,
        0.0,
        0.0,
        0.0,
        1.0,
        0.0,
        0.0,
        0.0,
        0.0,
        1.0,
        0.0,
        0.0,
        1.4272425174713135,
        1.0893058776855469,
        1.0
      ],
      "name": "horn_5"
    },
    {
      "mesh": 5,
      "name": "Object_14"
    }
  ],
  "samplers": [
    {
      "magFilter": 9729,
      "minFilter": 9987,
      "wrapS": 10497,
      "wrapT": 10497
    }
  ],
  "scene": 0,
  "scenes": [
    {
      "name": "Sketchfab_Scene",
      "nodes": [
        0
      ]
    }
  ],
  "textures": [
    {
      "sampler": 0,
      "source": 0
    }
  ]
}
