{
  "accessors": [
    {
      "bufferView": 2,
      "componentType": 5126,
      "count": 12,
      "max": [
        9.96866512298584,
        1.7751189470291138,
        5.009969234466553
      ],
      "min": [
        -10.018714904785156,
        -0.1348550021648407,
        -5.082098007202148
      ],
      "type": "VEC3"
    },
    {
      "bufferView": 2,
      "byteOffset": 144,
      "componentType": 5126,
      "count": 12,
      "max": [
        0.5697579979896545,
        0.9995880126953125,
        0.8360580205917358
      ],
      "min": [
        -0.5664111375808716,
        0.49523794651031494,
        -0.840333878993988
      ],
      "type": "VEC3"
    },
    {
      "bufferView": 3,
      "componentType": 5126,
      "count": 12,
      "max": [
        0.9998453855514526,
        0.7472074627876282,
        0.08502717316150665,
        1.0
      ],
      "min": [
        0.6483405828475952,
        -0.757201075553894,
        -0.09405863285064697,
        1.0
      ],
      "type": "VEC4"
    },
    {
      "bufferView": 1,
      "componentType": 5126,
      "count": 12,
      "max": [
        1.0,
        1.0
      ],
      "min": [
        0.0,
        0.0
      ],
      "type": "VEC2"
    },
    {
      "bufferView": 0,
      "componentType": 5125,
      "count": 54,
      "type": "SCALAR"
    },
    {
      "bufferView": 2,
      "byteOffset": 288,
      "componentType": 5126,
      "count": 904,
      "max": [
        10.741179466247559,
        4.639432907104492,
        5.711410999298096
      ],
      "min": [
        -10.763592720031738,
        -3.113996982574463,
        -5.709235191345215
      ],
      "type": "VEC3"
    },
    {
      "bufferView": 2,
      "byteOffset": 11136,
      "componentType": 5126,
      "count": 904,
      "max": [
        1.0,
        0.9999823570251465,
        0.9997144937515259
      ],
      "min": [
        -1.0,
        -0.9999774694442749,
        -0.9998490214347839
      ],
      "type": "VEC3"
    },
    {
      "bufferView": 3,
      "byteOffset": 192,
      "componentType": 5126,
      "count": 904,
      "max": [
        0.9999606609344482,
        0.9999085664749146,
        0.9999864101409912,
        1.0
      ],
      "min": [
        -0.9999632239341736,
        -0.9997318983078003,
        -0.9999832510948181,
        -1.0
      ],
      "type": "VEC4"
    },
    {
      "bufferView": 1,
      "byteOffset": 96,
      "componentType": 5126,
      "count": 904,
      "max": [
        1.0,
        1.0
      ],
      "min": [
        0.0,
        0.0
      ],
      "type": "VEC2"
    },
    {
      "bufferView": 0,
      "byteOffset": 216,
      "componentType": 5125,
      "count": 2196,
      "type": "SCALAR"
    }
  ],
  "asset": {
    "extras": {
      "author": "Asylum Nox (https://sketchfab.com/peter.pottiez)",
      "license": "CC-BY-4.0 (http://creativecommons.org/licenses/by/4.0/)",
      "source": "https://sketchfab.com/3d-models/stylized-bed-f6b9a886d7ba46f680632ea18cb83da9",
      "title": "Stylized bed"
    },
    "generator": "Sketchfab-12.67.0",
    "version": "2.0"
  },
  "bufferViews": [
    {
      "buffer": 0,
      "byteLength": 9000,
      "name": "floatBufferViews",
      "target": 34963
    },
    {
      "buffer": 0,
      "byteLength": 7328,
      "byteOffset": 9000,
      "byteStride": 8,
      "name": "floatBufferViews",
      "target": 34962
    },
    {
      "buffer": 0,
      "byteLength": 21984,
      "byteOffset": 16328,
      "byteStride": 12,
      "name": "floatBufferViews",
      "target": 34962
    },
    {
      "buffer": 0,
      "byteLength": 14656,
      "byteOffset": 38312,
      "byteStride": 16,
      "name": "floatBufferViews",
      "target": 34962
    }
  ],
  "buffers": [
    {
      "byteLength": 52968,
      "uri": "scene.bin"
    }
  ],
  "images": [
    {
      "uri": "textures/null_baseColor.jpeg"
    },
    {
      "uri": "textures/null_metallicRoughness.png"
    },
    {
      "uri": "textures/null_normal.png"
    },
    {
      "uri": "textures/Material_Texture.dds_baseColor.jpeg"
    },
    {
      "uri": "textures/Material_Texture.dds_metallicRoughness.png"
    },
    {
      "uri": "textures/Material_Texture.dds_normal.png"
    }
  ],
  "materials": [
    {
      "doubleSided": true,
      "name": "null",
      "normalTexture": {
        "index": 2
      },
      "occlusionTexture": {
        "index": 1
      },
      "pbrMetallicRoughness": {
        "baseColorTexture": {
          "index": 0
        },
        "metallicRoughnessTexture": {
          "index": 1
        }
      }
    },
    {
      "doubleSided": true,
      "name": "Material_Texture.dds",
      "normalTexture": {
        "index": 5
      },
      "occlusionTexture": {
        "index": 4
      },
      "pbrMetallicRoughness": {
        "baseColorTexture": {
          "index": 3
        },
        "metallicRoughnessTexture": {
          "index": 4
        }
      }
    }
  ],
  "meshes": [
    {
      "name": "defaultMaterial",
      "primitives": [
        {
          "attributes": {
            "NORMAL": 1,
            "POSITION": 0,
            "TANGENT": 2,
            "TEXCOORD_0": 3
          },
          "indices": 4,
          "material": 0,
          "mode": 4
        }
      ]
    },
    {
      "name": "defaultMaterial",
      "primitives": [
        {
          "attributes": {
            "NORMAL": 6,
            "POSITION": 5,
            "TANGENT": 7,
            "TEXCOORD_0": 8
          },
          "indices": 9,
          "material": 1,
          "mode": 4
        }
      ]
    }
  ],
  "nodes": [
    {
      "children": [
        1
      ],
      "matrix": [
        1.0,
        0.0,
        0.0,
        0.0,
        0.0,
        2.220446049250313e-16,
        -1.0,
        0.0,
        0.0,
        1.0,
        2.220446049250313e-16,
        0.0,
        0.0,
        0.0,
        0.0,
        1.0
      ],
      "name": "Sketchfab_model"
    },
    {
      "children": [
        2
      ],
      "matrix": [
        1.0,
        0.0,
        0.0,
        0.0,
        0.0,
        -4.371139006309477e-08,
        0.999999999999999,
        0.0,
        0.0,
        -0.999999999999999,
        -4.371139006309477e-08,
        0.0,
        0.0,
        0.0,
        0.0,
        1.0
      ],
      "name": "Collada visual scene group"
    },
    {
      "children": [
        3,
        4
      ],
      "name": "defaultobject"
    },
    {
      "mesh": 0,
      "name": "defaultMaterial"
    },
    {
      "mesh": 1,
      "name": "defaultMaterial"
    }
  ],
  "samplers": [
    {
      "magFilter": 9729,
      "minFilter": 9987,
      "wrapS": 10497,
      "wrapT": 10497
    }
  ],
  "scene": 0,
  "scenes": [
    {
      "name": "Sketchfab_Scene",
      "nodes": [
        0
      ]
    }
  ],
  "textures": [
    {
      "sampler": 0,
      "source": 0
    },
    {
      "sampler": 0,
      "source": 1
    },
    {
      "sampler": 0,
      "source": 2
    },
    {
      "sampler": 0,
      "source": 3
    },
    {
      "sampler": 0,
      "source": 4
    },
    {
      "sampler": 0,
      "source": 5
    }
  ]
}
