{
  "accessors": [
    {
      "bufferView": 2,
      "componentType": 5126,
      "count": 12228,
      "max": [
        123.73300170898438,
        464.4939880371094,
        297.7869873046875
      ],
      "min": [
        -125.53299713134766,
        -464.0150146484375,
        31.272300720214844
      ],
      "type": "VEC3"
    },
    {
      "bufferView": 2,
      "byteOffset": 146736,
      "componentType": 5126,
      "count": 12228,
      "max": [
        1.0,
        1.0,
        1.0
      ],
      "min": [
        -1.0,
        -1.0,
        -1.0
      ],
      "type": "VEC3"
    },
    {
      "bufferView": 3,
      "componentType": 5126,
      "count": 12228,
      "max": [
        1.0,
        1.0,
        1.0,
        1.0
      ],
      "min": [
        -1.0,
        -1.0,
        -1.0,
        -1.0
      ],
      "type": "VEC4"
    },
    {
      "bufferView": 1,
      "componentType": 5126,
      "count": 12228,
      "max": [
        0.9994999766349792,
        0.995618999004364
      ],
      "min": [
        0.0005000000237487257,
        0.0005000000237487257
      ],
      "type": "VEC2"
    },
    {
      "bufferView": 0,
      "componentType": 5125,
      "count": 34392,
      "type": "SCALAR"
    },
    {
      "bufferView": 2,
      "byteOffset": 293472,
      "componentType": 5126,
      "count": 7946,
      "max": [
        120.69400024414063,
        223.7310028076172,
        107.11799621582031
      ],
      "min": [
        -118.96499633789063,
        -306.5419921875,
        -0.39688101410865784
      ],
      "type": "VEC3"
    },
    {
      "bufferView": 2,
      "byteOffset": 388824,
      "componentType": 5126,
      "count": 7946,
      "max": [
        1.0,
        1.0,
        1.0
      ],
      "min": [
        -1.0,
        -1.0,
        -1.0
      ],
      "type": "VEC3"
    },
    {
      "bufferView": 3,
      "byteOffset": 195648,
      "componentType": 5126,
      "count": 7946,
      "max": [
        0.9987367391586304,
        1.0,
        1.0,
        1.0
      ],
      "min": [
        -0.9987367987632751,
        -1.0,
        -1.0,
        -1.0
      ],
      "type": "VEC4"
    },
    {
      "bufferView": 1,
      "byteOffset": 97824,
      "componentType": 5126,
      "count": 7946,
      "max": [
        0.9994999766349792,
        0.993278980255127
      ],
      "min": [
        0.0005000000237487257,
        0.0005000000237487257
      ],
      "type": "VEC2"
    },
    {
      "bufferView": 0,
      "byteOffset": 137568,
      "componentType": 5125,
      "count": 25080,
      "type": "SCALAR"
    },
    {
      "bufferView": 2,
      "byteOffset": 484176,
      "componentType": 5126,
      "count": 65532,
      "max": [
        136.92300415039063,
        466.1419982910156,
        283.75201416015625
      ],
      "min": [
        -136.26300048828125,
        -460.3009948730469,
        27.57040023803711
      ],
      "type": "VEC3"
    },
    {
      "bufferView": 2,
      "byteOffset": 1270560,
      "componentType": 5126,
      "count": 65532,
      "max": [
        1.0,
        1.0,
        1.0
      ],
      "min": [
        -1.0,
        -1.0,
        -1.0
      ],
      "type": "VEC3"
    },
    {
      "bufferView": 3,
      "byteOffset": 322784,
      "componentType": 5126,
      "count": 65532,
      "max": [
        1.0,
        1.0,
        1.0,
        1.0
      ],
      "min": [
        -1.0,
        -1.0,
        -1.0,
        -1.0
      ],
      "type": "VEC4"
    },
    {
      "bufferView": 1,
      "byteOffset": 161392,
      "componentType": 5126,
      "count": 65532,
      "max": [
        0.9914759993553162,
        0.9994999766349792
      ],
      "min": [
        0.0005000000237487257,
        0.0005000000237487257
      ],
      "type": "VEC2"
    },
    {
      "bufferView": 0,
      "byteOffset": 237888,
      "componentType": 5125,
      "count": 275370,
      "type": "SCALAR"
    },
    {
      "bufferView": 2,
      "byteOffset": 2056944,
      "componentType": 5126,
      "count": 461,
      "max": [
        125.08699798583984,
        454.8680114746094,
        164.21200561523438
      ],
      "min": [
        -122.98799896240234,
        -311.2619934082031,
        32.962501525878906
      ],
      "type": "VEC3"
    },
    {
      "bufferView": 2,
      "byteOffset": 2062476,
      "componentType": 5126,
      "count": 461,
      "max": [
        0.9994874596595764,
        0.9998944997787476,
        1.0
      ],
      "min": [
        -0.9994872212409973,
        -1.0,
        -1.0
      ],
      "type": "VEC3"
    },
    {
      "bufferView": 3,
      "byteOffset": 1371296,
      "componentType": 5126,
      "count": 461,
      "max": [
        1.0,
        0.9872103929519653,
        0.9999993443489075,
        1.0
      ],
      "min": [
        -1.0,
        -0.9853374361991882,
        -0.9998407363891602,
        -1.0
      ],
      "type": "VEC4"
    },
    {
      "bufferView": 1,
      "byteOffset": 685648,
      "componentType": 5126,
      "count": 461,
      "max": [
        0.9894750118255615,
        0.8738920092582703
      ],
      "min": [
        0.0005000039818696678,
        0.012020199559628963
      ],
      "type": "VEC2"
    },
    {
      "bufferView": 0,
      "byteOffset": 1339368,
      "componentType": 5125,
      "count": 1221,
      "type": "SCALAR"
    },
    {
      "bufferView": 2,
      "byteOffset": 2068008,
      "componentType": 5126,
      "count": 4341,
      "max": [
        122.10700225830078,
        450.2489929199219,
        297.4700012207031
      ],
      "min": [
        -122.32499694824219,
        -451.9859924316406,
        32.57400131225586
      ],
      "type": "VEC3"
    },
    {
      "bufferView": 2,
      "byteOffset": 2120100,
      "componentType": 5126,
      "count": 4341,
      "max": [
        1.0,
        1.0,
        1.0
      ],
      "min": [
        -1.0,
        -1.0,
        -1.0
      ],
      "type": "VEC3"
    },
    {
      "bufferView": 3,
      "byteOffset": 1378672,
      "componentType": 5126,
      "count": 4341,
      "max": [
        1.0,
        1.0,
        1.0,
        1.0
      ],
      "min": [
        -1.0,
        -1.0,
        -1.0,
        -1.0
      ],
      "type": "VEC4"
    },
    {
      "bufferView": 1,
      "byteOffset": 689336,
      "componentType": 5126,
      "count": 4341,
      "max": [
        0.9972590208053589,
        0.9994999766349792
      ],
      "min": [
        0.0005000000237487257,
        0.0005000000237487257
      ],
      "type": "VEC2"
    },
    {
      "bufferView": 0,
      "byteOffset": 1344252,
      "componentType": 5125,
      "count": 12069,
      "type": "SCALAR"
    },
    {
      "bufferView": 2,
      "byteOffset": 2172192,
      "componentType": 5126,
      "count": 470,
      "max": [
        120.427001953125,
        441.0790100097656,
        261.6969909667969
      ],
      "min": [
        -120.48600006103516,
        -445.82000732421875,
        166.91299438476563
      ],
      "type": "VEC3"
    },
    {
      "bufferView": 2,
      "byteOffset": 2177832,
      "componentType": 5126,
      "count": 470,
      "max": [
        1.0,
        1.0,
        0.3393568992614746
      ],
      "min": [
        -1.0,
        -0.9961952567100525,
        -0.02349909394979477
      ],
      "type": "VEC3"
    },
    {
      "bufferView": 3,
      "byteOffset": 1448128,
      "componentType": 5126,
      "count": 470,
      "max": [
        1.0,
        1.0,
        1.0,
        1.0
      ],
      "min": [
        -1.0,
        -0.9989119172096252,
        -1.0,
        -1.0
      ],
      "type": "VEC4"
    },
    {
      "bufferView": 1,
      "byteOffset": 724064,
      "componentType": 5126,
      "count": 470,
      "max": [
        -0.13961200416088104,
        2.6308200359344482
      ],
      "min": [
        -2.2176899909973145,
        1.4927500486373901
      ],
      "type": "VEC2"
    },
    {
      "bufferView": 0,
      "byteOffset": 1392528,
      "componentType": 5125,
      "count": 1308,
      "type": "SCALAR"
    }
  ],
  "asset": {
    "extras": {
      "author": "Alt (https://sketchfab.com/whisper.alt)",
      "license": "CC-BY-4.0 (http://creativecommons.org/licenses/by/4.0/)",
      "source": "https://sketchfab.com/3d-models/laz-695-ddfd0b9846c24a058874521e9d170bcb",
      "title": "Laz 695"
    },
    "generator": "Sketchfab-12.65.0",
    "version": "2.0"
  },
  "bufferViews": [
    {
      "buffer": 0,
      "byteLength": 1397760,
      "name": "floatBufferViews",
      "target": 34963
    },
    {
      "buffer": 0,
      "byteLength": 727824,
      "byteOffset": 1397760,
      "byteStride": 8,
      "name": "floatBufferViews",
      "target": 34962
    },
    {
      "buffer": 0,
      "byteLength": 2183472,
      "byteOffset": 2125584,
      "byteStride": 12,
      "name": "floatBufferViews",
      "target": 34962
    },
    {
      "buffer": 0,
      "byteLength": 1455648,
      "byteOffset": 4309056,
      "byteStride": 16,
      "name": "floatBufferViews",
      "target": 34962
    }
  ],
  "buffers": [
    {
      "byteLength": 5764704,
      "uri": "scene.bin"
    }
  ],
  "extensionsUsed": [
    "KHR_materials_transmission"
  ],
  "images": [
    {
      "uri": "textures/03_-_Default_baseColor.png"
    },
    {
      "uri": "textures/03_-_Default_metallicRoughness.png"
    },
    {
      "uri": "textures/03_-_Default_normal.png"
    },
    {
      "uri": "textures/08_-_Default_baseColor.png"
    },
    {
      "uri": "textures/08_-_Default_metallicRoughness.png"
    },
    {
      "uri": "textures/08_-_Default_normal.png"
    },
    {
      "uri": "textures/09_-_Default_baseColor.png"
    },
    {
      "uri": "textures/09_-_Default_metallicRoughness.png"
    },
    {
      "uri": "textures/09_-_Default_emissive.png"
    },
    {
      "uri": "textures/09_-_Default_normal.png"
    },
    {
      "uri": "textures/22_-_Default_baseColor.png"
    },
    {
      "uri": "textures/22_-_Default_metallicRoughness.png"
    },
    {
      "uri": "textures/22_-_Default_normal.png"
    },
    {
      "uri": "textures/Glass_baseColor.png"
    },
    {
      "uri": "textures/Glass_metallicRoughness.png"
    },
    {
      "uri": "textures/Glass_normal.png"
    }
  ],
  "materials": [
    {
      "doubleSided": true,
      "name": "03_-_Default",
      "normalTexture": {
        "index": 2
      },
      "occlusionTexture": {
        "index": 1
      },
      "pbrMetallicRoughness": {
        "baseColorTexture": {
          "index": 0
        },
        "metallicRoughnessTexture": {
          "index": 1
        }
      }
    },
    {
      "doubleSided": true,
      "name": "08_-_Default",
      "normalTexture": {
        "index": 5
      },
      "occlusionTexture": {
        "index": 4
      },
      "pbrMetallicRoughness": {
        "baseColorTexture": {
          "index": 3
        },
        "metallicRoughnessTexture": {
          "index": 4
        }
      }
    },
    {
      "doubleSided": true,
      "emissiveFactor": [
        1.0,
        1.0,
        1.0
      ],
      "emissiveTexture": {
        "index": 8
      },
      "name": "09_-_Default",
      "normalTexture": {
        "index": 9
      },
      "occlusionTexture": {
        "index": 7
      },
      "pbrMetallicRoughness": {
        "baseColorTexture": {
          "index": 6
        },
        "metallicRoughnessTexture": {
          "index": 7
        }
      }
    },
    {
      "doubleSided": true,
      "name": "22_-_Default",
      "normalTexture": {
        "index": 12
      },
      "occlusionTexture": {
        "index": 11
      },
      "pbrMetallicRoughness": {
        "baseColorTexture": {
          "index": 10
        },
        "metallicRoughnessTexture": {
          "index": 11
        }
      }
    },
    {
      "alphaMode": "BLEND",
      "doubleSided": true,
      "extensions": {
        "KHR_materials_transmission": {
          "transmissionFactor": 0.9556021341463414
        }
      },
      "name": "Glass",
      "normalTexture": {
        "index": 15
      },
      "occlusionTexture": {
        "index": 14
      },
      "pbrMetallicRoughness": {
        "baseColorFactor": [
          1.0,
          1.0,
          1.0,
          0.25
        ],
        "baseColorTexture": {
          "index": 13
        },
        "metallicRoughnessTexture": {
          "index": 14
        }
      }
    }
  ],
  "meshes": [
    {
      "name": "Object_0",
      "primitives": [
        {
          "attributes": {
            "NORMAL": 1,
            "POSITION": 0,
            "TANGENT": 2,
            "TEXCOORD_0": 3
          },
          "indices": 4,
          "material": 0,
          "mode": 4
        }
      ]
    },
    {
      "name": "Object_1",
      "primitives": [
        {
          "attributes": {
            "NORMAL": 6,
            "POSITION": 5,
            "TANGENT": 7,
            "TEXCOORD_0": 8
          },
          "indices": 9,
          "material": 1,
          "mode": 4
        }
      ]
    },
    {
      "name": "Object_2",
      "primitives": [
        {
          "attributes": {
            "NORMAL": 11,
            "POSITION": 10,
            "TANGENT": 12,
            "TEXCOORD_0": 13
          },
          "indices": 14,
          "material": 2,
          "mode": 4
        }
      ]
    },
    {
      "name": "Object_3",
      "primitives": [
        {
          "attributes": {
            "NORMAL": 16,
            "POSITION": 15,
            "TANGENT": 17,
            "TEXCOORD_0": 18
          },
          "indices": 19,
          "material": 2,
          "mode": 4
        }
      ]
    },
    {
      "name": "Object_4",
      "primitives": [
        {
          "attributes": {
            "NORMAL": 21,
            "POSITION": 20,
            "TANGENT": 22,
            "TEXCOORD_0": 23
          },
          "indices": 24,
          "material": 3,
          "mode": 4
        }
      ]
    },
    {
      "name": "Object_5",
      "primitives": [
        {
          "attributes": {
            "NORMAL": 26,
            "POSITION": 25,
            "TANGENT": 27,
            "TEXCOORD_0": 28
          },
          "indices": 29,
          "material": 4,
          "mode": 4
        }
      ]
    }
  ],
  "nodes": [
    {
      "children": [
        1
      ],
      "matrix": [
        1.0,
        0.0,
        0.0,
        0.0,
        0.0,
        2.220446049250313e-16,
        -1.0,
        0.0,
        0.0,
        1.0,
        2.220446049250313e-16,
        0.0,
        0.0,
        0.0,
        0.0,
        1.0
      ],
      "name": "Sketchfab_model"
    },
    {
      "children": [
        2,
        3,
        4,
        5,
        6,
        7
      ],
      "name": "laz695.obj.cleaner.materialmerger.gles"
    },
    {
      "mesh": 0,
      "name": "Object_2"
    },
    {
      "mesh": 1,
      "name": "Object_3"
    },
    {
      "mesh": 2,
      "name": "Object_4"
    },
    {
      "mesh": 3,
      "name": "Object_5"
    },
    {
      "mesh": 4,
      "name": "Object_6"
    },
    {
      "mesh": 5,
      "name": "Object_7"
    }
  ],
  "samplers": [
    {
      "magFilter": 9729,
      "minFilter": 9987,
      "wrapS": 10497,
      "wrapT": 10497
    }
  ],
  "scene": 0,
  "scenes": [
    {
      "name": "Sketchfab_Scene",
      "nodes": [
        0
      ]
    }
  ],
  "textures": [
    {
      "sampler": 0,
      "source": 0
    },
    {
      "sampler": 0,
      "source": 1
    },
    {
      "sampler": 0,
      "source": 2
    },
    {
      "sampler": 0,
      "source": 3
    },
    {
      "sampler": 0,
      "source": 4
    },
    {
      "sampler": 0,
      "source": 5
    },
    {
      "sampler": 0,
      "source": 6
    },
    {
      "sampler": 0,
      "source": 7
    },
    {
      "sampler": 0,
      "source": 8
    },
    {
      "sampler": 0,
      "source": 9
    },
    {
      "sampler": 0,
      "source": 10
    },
    {
      "sampler": 0,
      "source": 11
    },
    {
      "sampler": 0,
      "source": 12
    },
    {
      "sampler": 0,
      "source": 13
    },
    {
      "sampler": 0,
      "source": 14
    },
    {
      "sampler": 0,
      "source": 15
    }
  ]
}
