{
  "accessors": [
    {
      "bufferView": 2,
      "componentType": 5126,
      "count": 1898,
      "max": [
        11.62259578704834,
        12.741546630859375,
        0.3641889989376068
      ],
      "min": [
        -11.62259578704834,
        -12.741546630859375,
        -0.3467710018157959
      ],
      "type": "VEC3"
    },
    {
      "bufferView": 2,
      "byteOffset": 22776,
      "componentType": 5126,
      "count": 1898,
      "max": [
        1.0,
        1.0,
        1.0
      ],
      "min": [
        -1.0,
        -1.0,
        -1.0
      ],
      "type": "VEC3"
    },
    {
      "bufferView": 1,
      "componentType": 5126,
      "count": 1898,
      "max": [
        0.9813699722290039,
        0.9940900206565857
      ],
      "min": [
        0.001003999961540103,
        0.0035699999425560236
      ],
      "type": "VEC2"
    },
    {
      "bufferView": 0,
      "componentType": 5125,
      "count": 9744,
      "type": "SCALAR"
    },
    {
      "bufferView": 2,
      "byteOffset": 45552,
      "componentType": 5126,
      "count": 9658,
      "max": [
        8.237764358520508,
        4.587498188018799,
        0.22042399644851685
      ],
      "min": [
        -8.237764358520508,
        -11.787763595581055,
        -0.22042399644851685
      ],
      "type": "VEC3"
    },
    {
      "bufferView": 2,
      "byteOffset": 161448,
      "componentType": 5126,
      "count": 9658,
      "max": [
        1.0,
        1.0,
        1.0
      ],
      "min": [
        -1.0,
        -1.0,
        -1.0
      ],
      "type": "VEC3"
    },
    {
      "bufferView": 1,
      "byteOffset": 15184,
      "componentType": 5126,
      "count": 9658,
      "max": [
        0.9889519810676575,
        0.9875490069389343
      ],
      "min": [
        0.012664999812841415,
        0.012292999774217606
      ],
      "type": "VEC2"
    },
    {
      "bufferView": 0,
      "byteOffset": 38976,
      "componentType": 5125,
      "count": 50160,
      "type": "SCALAR"
    },
    {
      "bufferView": 2,
      "byteOffset": 277344,
      "componentType": 5126,
      "count": 9658,
      "max": [
        10.587763786315918,
        11.787763595581055,
        0.22042399644851685
      ],
      "min": [
        -10.587763786315918,
        -11.787763595581055,
        -0.22042399644851685
      ],
      "type": "VEC3"
    },
    {
      "bufferView": 2,
      "byteOffset": 393240,
      "componentType": 5126,
      "count": 9658,
      "max": [
        1.0,
        1.0,
        1.0
      ],
      "min": [
        -1.0,
        -1.0,
        -1.0
      ],
      "type": "VEC3"
    },
    {
      "bufferView": 1,
      "byteOffset": 92448,
      "componentType": 5126,
      "count": 9658,
      "max": [
        0.9889519810676575,
        0.9875490069389343
      ],
      "min": [
        0.011893000453710556,
        0.5088819861412048
      ],
      "type": "VEC2"
    },
    {
      "bufferView": 0,
      "byteOffset": 239616,
      "componentType": 5125,
      "count": 50160,
      "type": "SCALAR"
    },
    {
      "bufferView": 2,
      "byteOffset": 509136,
      "componentType": 5126,
      "count": 8780,
      "max": [
        10.587763786315918,
        11.787763595581055,
        0.22042399644851685
      ],
      "min": [
        -8.237764358520508,
        5.011969089508057,
        -0.22042399644851685
      ],
      "type": "VEC3"
    },
    {
      "bufferView": 2,
      "byteOffset": 614496,
      "componentType": 5126,
      "count": 8780,
      "max": [
        1.0,
        1.0,
        1.0
      ],
      "min": [
        -1.0,
        -1.0,
        -1.0
      ],
      "type": "VEC3"
    },
    {
      "bufferView": 1,
      "byteOffset": 169712,
      "componentType": 5126,
      "count": 8780,
      "max": [
        0.9889519810676575,
        0.9875490069389343
      ],
      "min": [
        0.011893000453710556,
        0.26210901141166687
      ],
      "type": "VEC2"
    },
    {
      "bufferView": 0,
      "byteOffset": 440256,
      "componentType": 5125,
      "count": 45600,
      "type": "SCALAR"
    }
  ],
  "asset": {
    "extras": {
      "author": "elsa2297 (https://sketchfab.com/elsa2297.ice)",
      "license": "CC-BY-4.0 (http://creativecommons.org/licenses/by/4.0/)",
      "source": "https://sketchfab.com/3d-models/chinese-chess-board-xiangqi-068525be5e4e44aaa10d34c01f72f545",
      "title": "Chinese chess board - Xiangqi"
    },
    "generator": "Sketchfab-12.68.0",
    "version": "2.0"
  },
  "bufferViews": [
    {
      "buffer": 0,
      "byteLength": 622656,
      "name": "floatBufferViews",
      "target": 34963
    },
    {
      "buffer": 0,
      "byteLength": 239952,
      "byteOffset": 622656,
      "byteStride": 8,
      "name": "floatBufferViews",
      "target": 34962
    },
    {
      "buffer": 0,
      "byteLength": 719856,
      "byteOffset": 862608,
      "byteStride": 12,
      "name": "floatBufferViews",
      "target": 34962
    }
  ],
  "buffers": [
    {
      "byteLength": 1582464,
      "uri": "scene.bin"
    }
  ],
  "images": [
    {
      "uri": "textures/VRayMtl1SG_baseColor.png"
    },
    {
      "uri": "textures/VRayMtl2SG_baseColor.png"
    }
  ],
  "materials": [
    {
      "doubleSided": true,
      "name": "VRayMtl1SG",
      "pbrMetallicRoughness": {
        "baseColorTexture": {
          "index": 0
        },
        "metallicFactor": 0.0
      }
    },
    {
      "doubleSided": true,
      "name": "VRayMtl2SG",
      "pbrMetallicRoughness": {
        "baseColorTexture": {
          "index": 1
        },
        "metallicFactor": 0.0,
        "roughnessFactor": 0.7672433710912087
      }
    }
  ],
  "meshes": [
    {
      "name": "Object_0",
      "primitives": [
        {
          "attributes": {
            "NORMAL": 1,
            "POSITION": 0,
            "TEXCOORD_0": 2
          },
          "indices": 3,
          "material": 1,
          "mode": 4
        }
      ]
    },
    {
      "name": "Object_1",
      "primitives": [
        {
          "attributes": {
            "NORMAL": 5,
            "POSITION": 4,
            "TEXCOORD_0": 6
          },
          "indices": 7,
          "material": 0,
          "mode": 4
        }
      ]
    },
    {
      "name": "Object_2",
      "primitives": [
        {
          "attributes": {
            "NORMAL": 9,
            "POSITION": 8,
            "TEXCOORD_0": 10
          },
          "indices": 11,
          "material": 0,
          "mode": 4
        }
      ]
    },
    {
      "name": "Object_3",
      "primitives": [
        {
          "attributes": {
            "NORMAL": 13,
            "POSITION": 12,
            "TEXCOORD_0": 14
          },
          "indices": 15,
          "material": 0,
          "mode": 4
        }
      ]
    }
  ],
  "nodes": [
    {
      "children": [
        1
      ],
      "matrix": [
        1.0,
        0.0,
        0.0,
        0.0,
        0.0,
        2.220446049250313e-16,
        -1.0,
        0.0,
        0.0,
        1.0,
        2.220446049250313e-16,
        0.0,
        0.0,
        0.0,
        0.0,
        1.0
      ],
      "name": "Sketchfab_model"
    },
    {
      "children": [
        2,
        3,
        4,
        5
      ],
      "name": "Chessboard.obj.cleaner.materialmerger.gles"
    },
    {
      "mesh": 0,
      "name": "Object_2"
    },
    {
      "mesh": 1,
      "name": "Object_3"
    },
    {
      "mesh": 2,
      "name": "Object_4"
    },
    {
      "mesh": 3,
      "name": "Object_5"
    }
  ],
  "samplers": [
    {
      "magFilter": 9729,
      "minFilter": 9987,
      "wrapS": 10497,
      "wrapT": 10497
    }
  ],
  "scene": 0,
  "scenes": [
    {
      "name": "Sketchfab_Scene",
      "nodes": [
        0
      ]
    }
  ],
  "textures": [
    {
      "sampler": 0,
      "source": 0
    },
    {
      "sampler": 0,
      "source": 1
    }
  ]
}
