{
  "accessors": [
    {
      "bufferView": 2,
      "componentType": 5126,
      "count": 4868,
      "max": [
        4.1103901863098145,
        4.269289970397949,
        4.113969802856445
      ],
      "min": [
        -4.221109867095947,
        -4.166590213775635,
        -0.0007399999885819852
      ],
      "type": "VEC3"
    },
    {
      "bufferView": 2,
      "byteOffset": 58416,
      "componentType": 5126,
      "count": 4868,
      "max": [
        1.0,
        1.0,
        1.0
      ],
      "min": [
        -1.0,
        -1.0,
        -1.0
      ],
      "type": "VEC3"
    },
    {
      "bufferView": 1,
      "componentType": 5126,
      "count": 4868,
      "max": [
        0.9994300007820129,
        1.570580005645752
      ],
      "min": [
        0.00018000000272877514,
        0.0006799999973736703
      ],
      "type": "VEC2"
    },
    {
      "bufferView": 0,
      "componentType": 5125,
      "count": 19476,
      "type": "SCALAR"
    },
    {
      "bufferView": 2,
      "byteOffset": 116832,
      "componentType": 5126,
      "count": 10582,
      "max": [
        4.046760082244873,
        4.269289970397949,
        4.367670059204102
      ],
      "min": [
        -4.221109867095947,
        -4.132400035858154,
        0.5735200047492981
      ],
      "type": "VEC3"
    },
    {
      "bufferView": 2,
      "byteOffset": 243816,
      "componentType": 5126,
      "count": 10582,
      "max": [
        1.0,
        1.0,
        1.0
      ],
      "min": [
        -1.0,
        -1.0,
        -1.0
      ],
      "type": "VEC3"
    },
    {
      "bufferView": 1,
      "byteOffset": 38944,
      "componentType": 5126,
      "count": 10582,
      "max": [
        0.999809980392456,
        1.0008399486541748
      ],
      "min": [
        0.00016999999934341758,
        0.16755999624729156
      ],
      "type": "VEC2"
    },
    {
      "bufferView": 0,
      "byteOffset": 77904,
      "componentType": 5125,
      "count": 55992,
      "type": "SCALAR"
    },
    {
      "bufferView": 2,
      "byteOffset": 370800,
      "componentType": 5126,
      "count": 126,
      "max": [
        3.631769895553589,
        3.854949951171875,
        2.389899969100952
      ],
      "min": [
        -3.8096699714660645,
        -3.68887996673584,
        1.371150016784668
      ],
      "type": "VEC3"
    },
    {
      "bufferView": 2,
      "byteOffset": 372312,
      "componentType": 5126,
      "count": 126,
      "max": [
        1.0,
        1.0,
        0.0
      ],
      "min": [
        -1.0,
        -1.0,
        0.0
      ],
      "type": "VEC3"
    },
    {
      "bufferView": 1,
      "byteOffset": 123600,
      "componentType": 5126,
      "count": 126,
      "max": [
        1.0,
        1.0
      ],
      "min": [
        0.0,
        0.0
      ],
      "type": "VEC2"
    },
    {
      "bufferView": 0,
      "byteOffset": 301872,
      "componentType": 5125,
      "count": 672,
      "type": "SCALAR"
    }
  ],
  "asset": {
    "extras": {
      "author": "BatmanarkhamGOTY (https://sketchfab.com/hammondr)",
      "license": "CC-BY-4.0 (http://creativecommons.org/licenses/by/4.0/)",
      "source": "https://sketchfab.com/3d-models/old-house-blend-5760dae4651241d695d767d88db35c2f",
      "title": "Old-house-blend"
    },
    "generator": "Sketchfab-12.66.0",
    "version": "2.0"
  },
  "bufferViews": [
    {
      "buffer": 0,
      "byteLength": 304560,
      "name": "floatBufferViews",
      "target": 34963
    },
    {
      "buffer": 0,
      "byteLength": 124608,
      "byteOffset": 304560,
      "byteStride": 8,
      "name": "floatBufferViews",
      "target": 34962
    },
    {
      "buffer": 0,
      "byteLength": 373824,
      "byteOffset": 429168,
      "byteStride": 12,
      "name": "floatBufferViews",
      "target": 34962
    }
  ],
  "buffers": [
    {
      "byteLength": 802992,
      "uri": "scene.bin"
    }
  ],
  "images": [
    {
      "uri": "textures/Walls_baseColor.jpeg"
    },
    {
      "uri": "textures/Porch_baseColor.jpeg"
    },
    {
      "uri": "textures/Window_baseColor.jpeg"
    }
  ],
  "materials": [
    {
      "doubleSided": true,
      "name": "Walls",
      "pbrMetallicRoughness": {
        "baseColorTexture": {
          "index": 0
        },
        "metallicFactor": 0.0,
        "roughnessFactor": 0.6
      }
    },
    {
      "doubleSided": true,
      "name": "Porch",
      "pbrMetallicRoughness": {
        "baseColorTexture": {
          "index": 1
        },
        "metallicFactor": 0.0,
        "roughnessFactor": 0.6
      }
    },
    {
      "doubleSided": true,
      "name": "Window",
      "pbrMetallicRoughness": {
        "baseColorTexture": {
          "index": 2
        },
        "metallicFactor": 0.0,
        "roughnessFactor": 0.6
      }
    }
  ],
  "meshes": [
    {
      "name": "House.001_0",
      "primitives": [
        {
          "attributes": {
            "NORMAL": 1,
            "POSITION": 0,
            "TEXCOORD_0": 2
          },
          "indices": 3,
          "material": 0,
          "mode": 4
        }
      ]
    },
    {
      "name": "House.001_1",
      "primitives": [
        {
          "attributes": {
            "NORMAL": 5,
            "POSITION": 4,
            "TEXCOORD_0": 6
          },
          "indices": 7,
          "material": 1,
          "mode": 4
        }
      ]
    },
    {
      "name": "House.001_2",
      "primitives": [
        {
          "attributes": {
            "NORMAL": 9,
            "POSITION": 8,
            "TEXCOORD_0": 10
          },
          "indices": 11,
          "material": 2,
          "mode": 4
        }
      ]
    }
  ],
  "nodes": [
    {
      "children": [
        1
      ],
      "matrix": [
        1.0,
        0.0,
        0.0,
        0.0,
        0.0,
        2.220446049250313e-16,
        -1.0,
        0.0,
        0.0,
        1.0,
        2.220446049250313e-16,
        0.0,
        0.0,
        0.0,
        0.0,
        1.0
      ],
      "name": "Sketchfab_model"
    },
    {
      "children": [
        2
      ],
      "name": "Root"
    },
    {
      "children": [
        3
      ],
      "name": "House"
    },
    {
      "children": [
        4,
        5,
        6
      ],
      "name": "House.001"
    },
    {
      "mesh": 0,
      "name": "House.001_0"
    },
    {
      "mesh": 1,
      "name": "House.001_1"
    },
    {
      "mesh": 2,
      "name": "House.001_2"
    }
  ],
  "samplers": [
    {
      "magFilter": 9729,
      "minFilter": 9987,
      "wrapS": 10497,
      "wrapT": 10497
    }
  ],
  "scene": 0,
  "scenes": [
    {
      "name": "Sketchfab_Scene",
      "nodes": [
        0
      ]
    }
  ],
  "textures": [
    {
      "sampler": 0,
      "source": 0
    },
    {
      "sampler": 0,
      "source": 1
    },
    {
      "sampler": 0,
      "source": 2
    }
  ]
}
